<svg width="220" height="253" viewBox="0 0 220 253" fill="none" xmlns="http://www.w3.org/2000/svg">
<path d="M127.213 34.7044C130.081 31.0519 131.855 26.4466 131.855 21.4427C131.855 9.6187 122.32 0 110.565 0C98.809 0 89.2603 9.6187 89.2603 21.4427C89.2603 26.4476 90.782 31.0519 93.6482 34.7044C84.8713 40.3006 78.8311 50.1513 78.8311 61.3552V87.4434C78.8311 91.4141 82.4377 94.8606 86.3854 94.8606H134.802C138.75 94.8606 141.722 91.4132 141.722 87.4434V61.3552C141.721 50.1513 135.992 40.2997 127.213 34.7044Z" fill="#7157A4"/>
<path d="M62.6322 119.361V93.2727C62.6322 82.0697 57.1494 72.2171 48.3706 66.6219C51.2387 62.9693 53.1349 58.3641 53.1349 53.3602C53.1349 41.5362 43.6614 31.9175 31.9058 31.9175C20.1502 31.9175 10.632 41.5371 10.632 53.3612C10.632 58.366 12.3996 62.9703 15.2658 66.6228C6.48793 72.2191 0.694458 82.0697 0.694458 93.2736V119.362C0.694458 123.333 3.8399 126.49 7.7867 126.49H56.2032C60.1509 126.489 62.6322 123.332 62.6322 119.361Z" fill="#7157A4"/>
<path d="M205.607 66.6224C208.473 62.9698 210.377 58.3646 210.377 53.3607C210.377 41.5367 200.907 31.918 189.151 31.918C177.395 31.918 167.878 41.5367 167.878 53.3607C167.878 58.3656 169.634 62.9698 172.501 66.6224C163.723 72.2186 157.919 82.0692 157.919 93.2732V119.361C157.919 123.332 161.088 126.489 165.036 126.489H213.452C217.4 126.489 219.856 123.332 219.856 119.361V93.2732C219.856 82.0692 214.384 72.2176 205.607 66.6224Z" fill="#7157A4"/>
<path d="M127.213 193.087C130.081 189.435 131.855 184.83 131.855 179.827C131.855 168.002 122.32 158.384 110.565 158.384C98.809 158.384 89.2603 168.002 89.2603 179.827C89.2603 184.83 90.782 189.436 93.6482 193.088C84.8713 198.684 78.8311 208.535 78.8311 219.739V245.827C78.8311 249.798 82.4377 253 86.3854 253H134.802C138.75 253 141.722 249.797 141.722 245.827V219.739C141.721 208.534 135.992 198.684 127.213 193.087ZM110.593 172.76C114.467 172.76 117.619 175.931 117.619 179.827C117.619 183.723 114.467 186.893 110.593 186.893C106.72 186.893 103.568 183.723 103.568 179.827C103.568 175.931 106.719 172.76 110.593 172.76ZM127.428 238.624H93.1242V219.739C93.1242 210.276 100.868 202.577 110.277 202.577C119.684 202.577 127.428 210.276 127.428 219.739V238.624Z" fill="#7157A4"/>
<path d="M116.946 132.794V108.973C116.946 105.003 113.747 101.785 109.8 101.785C105.852 101.785 102.653 105.003 102.653 108.973V132.794C102.653 136.765 105.852 139.982 109.8 139.982C113.746 139.982 116.946 136.764 116.946 132.794Z" fill="#7157A4"/>
<path d="M41.043 134.349C38.1758 131.62 33.6554 131.744 30.9387 134.626C28.2249 137.508 28.3488 142.058 31.2141 144.789L67.146 179.011C68.5286 180.327 70.2953 180.98 72.059 180.98C73.9524 180.98 75.8438 180.226 77.2493 178.734C79.9631 175.851 79.8392 171.301 76.974 168.571L41.043 134.349Z" fill="#7157A4"/>
<path d="M180.077 134.247L144.243 168.548C141.383 171.284 141.272 175.835 143.992 178.71C145.397 180.195 147.282 180.943 149.17 180.943C150.94 180.943 152.713 180.286 154.096 178.962L189.929 144.661C192.789 141.925 192.901 137.375 190.18 134.5C187.46 131.622 182.935 131.512 180.077 134.247Z" fill="#7157A4"/>
</svg>
