<svg width="187" height="187" viewBox="0 0 187 187" fill="none" xmlns="http://www.w3.org/2000/svg">
<path d="M166.912 87.26C166.912 95.49 168.334 99.12 166.346 106.73C166.067 107.79 166.276 110.65 165.968 111.69C164.755 115.76 159.545 114.18 157.805 117.99C157.467 118.73 148.678 126.8 148.32 127.53C144.791 134.79 169 148.43 163.8 154.49C159.635 159.34 154.982 163.76 149.911 167.66C149.454 168.02 147.923 168.53 147.455 168.87C147.157 169.09 147.903 169.15 147.605 169.37C132.363 180.38 113.672 186.86 93.4797 186.86C92.6942 186.86 91.9088 186.85 91.1234 186.83C73.8141 186.4 70.2051 156.83 56.485 148.13C42.7748 139.43 37.1277 145.56 29.512 131.09C29.1143 130.34 23.5865 121.26 23.2186 120.49C18.2376 110.38 5.60117 113.47 4.55724 101.69C4.5473 101.56 4.55724 101.82 4.55724 101.69C4.52742 101.41 0.878654 100.87 0.85877 100.59C0.679811 98.22 0.590332 95.84 0.590332 93.43C0.590332 81.98 2.63841 71 6.38659 60.86C10.9401 48.55 44.4152 70.05 53.3532 60.82C66.8646 46.87 58.2646 4.57 78.2284 1.25C83.1896 0.43 88.2799 0 93.4797 0C120.632 0 145.069 11.72 162.051 30.4C164.804 33.43 153.709 47.6 156.045 50.97C158.471 54.47 174.319 47.18 176.268 51.01C178.266 54.95 179.986 59.04 181.418 63.27C184.629 72.73 166.912 76.69 166.912 87.24V87.26Z" fill="#6E72FF"/>
<path d="M96.3331 164.88C96.3331 172.78 94.454 180.24 91.1234 186.83C56.5049 185.97 26.589 166.06 11.3477 137.12C10.9501 136.37 10.5723 135.62 10.1945 134.86C19.0231 123.59 32.7134 116.36 48.0939 116.36C74.7388 116.36 96.3331 138.08 96.3331 164.88Z" fill="#F8BDFF"/>
<path d="M100.887 42.79C100.887 69.98 78.9641 92.02 51.9315 92.02C31.2419 92.02 13.5449 79.11 6.3866 60.86C17.82 29.95 45.0615 6.77001 78.2284 1.26001C91.8491 10 100.887 25.34 100.887 42.79Z" fill="#F8BDFF"/>
<path d="M186.369 93.44C186.369 101.67 185.305 109.66 183.327 117.26C183.178 117.82 182.283 119.12 182.124 119.67C181.985 120.16 182.591 119.92 182.442 120.41C181.229 124.48 179.738 128.42 178.008 132.23C177.819 132.64 176.596 133.54 176.397 133.95C176.248 134.27 177.123 134.11 176.974 134.43C173.444 141.69 169 148.43 163.8 154.48C161.474 154.82 159.098 155 156.672 155C129.639 155 107.727 132.96 107.727 105.77C107.727 78.58 129.639 56.54 156.672 56.54C165.709 56.54 174.16 59 181.428 63.29C184.639 72.75 186.369 82.89 186.369 93.44Z" fill="#F8BDFF"/>
<path d="M148.499 168.03C141.6 169.72 132.721 169.67 126.209 165.34C128.854 163.33 131.508 160.62 132.532 157.04C133.298 154.38 132.741 151.17 131.101 148.85C129.808 147.01 127.999 145.94 126 145.83C122.401 145.64 118.941 148.71 118.295 152.69C117.758 156 118.981 159.68 121.656 162.8C122.471 163.75 123.356 164.59 124.3 165.34C123.714 165.74 123.127 166.11 122.59 166.45C116.476 170.23 111.326 171.24 107.279 169.48C101.742 167.06 99.8029 160.07 99.8327 154.34C99.8625 148.57 101.324 142.84 103.949 137.72C106.076 133.55 108.979 129.79 112.509 126.73L111.783 125.88C107.796 129.34 104.595 133.65 102.358 138.44C100.032 143.4 98.7589 148.85 98.7192 154.34C98.6794 160.43 100.797 167.88 106.832 170.52C108.254 171.14 109.805 171.45 111.455 171.45C114.895 171.45 118.812 170.1 123.167 167.41C123.823 167 124.519 166.55 125.245 166.05C131.727 170.56 140.506 170.9 147.595 169.39C148.37 168.83 149.136 168.26 149.901 167.67C149.434 167.8 148.957 167.92 148.489 168.04L148.499 168.03ZM122.501 162.06C120.045 159.2 118.912 155.85 119.399 152.86C119.866 149.94 122.481 146.93 125.662 146.93C125.752 146.93 125.841 146.93 125.941 146.93C127.591 147.02 129.092 147.93 130.186 149.48C131.628 151.53 132.135 154.36 131.459 156.71C130.474 160.13 127.84 162.73 125.245 164.65C124.26 163.9 123.336 163.04 122.491 162.05L122.501 162.06Z" fill="#FFC063"/>
<path d="M171.028 138.2C169.835 139.31 168.602 140.45 167.36 141.53C161.583 146.52 156.383 148.79 151.452 148.48C147.217 148.21 143.081 145.88 140.377 142.24C140.247 142.06 140.118 141.88 139.999 141.7C143.767 140.1 146.759 137.2 148.032 133.57C148.907 131.07 148.758 127.74 146.352 126.31C145.03 125.53 143.23 125.54 141.53 126.34C138.746 127.66 136.807 130.7 136.599 134.11C136.45 136.41 137.056 138.84 138.319 141.11C136.41 141.75 134.352 142.04 132.274 141.92C127.77 141.64 122.471 139.18 120.771 134.32C120.333 133.06 120.164 131.76 120.204 130.41C120.264 127.71 121.099 124.86 122.043 121.96L120.98 121.61C120.125 124.24 119.031 127.58 119.081 130.91C119.1 132.18 119.289 133.46 119.717 134.69C121.586 140.04 127.333 142.74 132.204 143.04C134.541 143.19 136.827 142.85 138.925 142.12C139.104 142.39 139.283 142.65 139.482 142.92C142.375 146.82 146.819 149.32 151.383 149.61C151.701 149.63 152.029 149.64 152.347 149.64C157.288 149.64 162.448 147.26 168.085 142.39C169.348 141.3 170.591 140.15 171.794 139.03C173.474 137.47 175.174 135.89 176.984 134.44C177.341 133.71 177.689 132.98 178.018 132.24C175.522 134.04 173.255 136.15 171.038 138.21L171.028 138.2ZM139.373 140.71C138.16 138.58 137.573 136.32 137.702 134.18C137.891 131.18 139.571 128.5 141.997 127.36C142.703 127.02 143.429 126.86 144.105 126.86C144.721 126.86 145.298 127 145.775 127.29C147.555 128.35 147.724 131.07 146.968 133.21C145.795 136.54 142.922 139.24 139.363 140.72L139.373 140.71Z" fill="#E36352"/>
<path d="M182.173 118.85C180.811 120.77 179.4 122.75 177.749 124.44C173.454 128.83 167.409 130.89 162.339 129.68C158.869 128.85 155.986 126.28 154.534 123.23C157.219 121.96 159.486 119.8 160.718 117.06C160.917 116.62 161.126 116.09 161.166 115.51C161.235 114.54 160.788 113.6 159.943 112.92C159.843 112.84 159.734 112.76 159.615 112.69C158.64 112.07 157.408 111.88 156.364 112.21C154.892 112.68 153.699 113.93 153.013 115.66C152.844 116.08 152.705 116.52 152.606 116.99C152.198 118.87 152.387 120.82 153.033 122.64C150.965 123.41 148.698 123.61 146.531 123.11C144.781 122.7 143.17 121.84 141.808 120.68C139.154 118.4 137.464 114.96 137.573 111.42L136.46 111.39C136.36 115.09 138.03 118.69 140.715 121.18C142.286 122.64 144.185 123.71 146.282 124.2C148.668 124.76 151.184 124.53 153.461 123.67C155.031 127.04 158.193 129.83 162.07 130.76C163.154 131.02 164.268 131.14 165.391 131.14C169.994 131.14 174.806 129.02 178.525 125.21C179.976 123.73 181.229 122.06 182.412 120.39C182.72 119.35 183.019 118.3 183.297 117.24C182.909 117.77 182.531 118.31 182.154 118.83L182.173 118.85ZM153.709 117.23C153.868 116.46 154.196 115.63 154.683 114.91C155.181 114.17 155.857 113.55 156.722 113.28C156.95 113.21 157.189 113.17 157.437 113.17C157.716 113.17 157.994 113.21 158.273 113.3C158.63 113.4 158.969 113.58 159.257 113.81C159.585 114.07 160.112 114.62 160.052 115.43C160.022 115.83 159.863 116.24 159.704 116.59C158.581 119.07 156.533 121.03 154.107 122.2C153.53 120.58 153.361 118.87 153.709 117.23Z" fill="#B5E1E8"/>
<path d="M176.268 51.0299L165.242 110.17L159.625 112.69L158.273 113.3L154.683 114.91L153.033 115.65L141.838 120.68L140.735 121.18L120.194 130.4L119.081 130.9L103.949 137.7L102.358 138.41L93.3504 142.46L92.6744 142.76C92.6744 142.76 92.4755 142.69 92.1077 142.54C89.821 141.67 80.9029 138.28 70.235 134.23C69.2607 133.86 68.2665 133.48 67.2623 133.1C65.433 132.4 63.5638 131.69 61.6848 130.98C43.7094 124.16 24.5111 116.91 24.193 116.91L27.3446 115.38L27.6131 115.25L27.9213 115.1L28.1997 114.97L28.7564 114.7L32.4648 112.9L33.9661 112.17L34.7217 111.8L48.3424 105.19L48.8694 104.93L50.1121 104.33L82.8913 88.4199L101.851 94.2599L102.865 94.5699L112.439 44.7499L113.016 44.5799L162.041 30.3899C167.648 36.5599 172.45 43.4899 176.258 51.0099L176.268 51.0299Z" fill="#412945"/>
<path d="M113.026 44.5998C112.966 44.3898 112.797 44.2298 112.569 44.1798C112.24 44.1098 111.932 44.3298 111.863 44.6498L101.851 94.2798L101.304 96.9898L84.7107 91.5598C84.5616 91.5098 84.4025 91.5198 84.2633 91.5898L56.4253 105.29C56.3657 105.31 56.306 105.33 56.2464 105.38L55.8487 105.58L55.0135 105.99L54.1685 106.41L40.4583 113.15L39.2354 113.76L38.7979 113.98L35.9545 115.38C35.7457 115.49 35.6165 115.71 35.6165 115.95C35.6264 116.19 35.7755 116.4 35.9943 116.48L92.8632 138.62C92.8632 138.62 92.8831 138.62 92.8931 138.62L92.0977 142.55L92.0778 142.65C92.0082 142.98 92.2269 143.29 92.5451 143.36C92.5849 143.37 92.6246 143.37 92.6644 143.37C92.9428 143.37 93.1913 143.17 93.251 142.89L93.3405 142.47L113.026 44.8898C113.046 44.7898 113.036 44.6898 113.016 44.5998H113.026ZM84.5715 92.7798L92.6047 95.4098L86.7488 98.2698L79.3618 95.3498L84.5715 92.7898V92.7798ZM75.6932 114.1L66.3376 119.44L55.2024 114.98L65.3931 110.01L75.6932 114.1ZM66.8646 109.29L76.578 104.56L85.9833 108.23L77.0354 113.33L66.8646 109.29ZM77.1248 114.66L86.5003 118.38L76.9956 123.69L67.7693 119.99L77.1248 114.65V114.66ZM78.467 113.89L87.4249 108.78L96.9892 112.51L87.8623 117.61L78.477 113.88L78.467 113.89ZM87.3255 107.45L78.0495 103.83L86.7985 99.5598L95.2792 102.9L87.3255 107.44V107.45ZM77.9799 96.0098C78.0395 96.0698 78.1091 96.1298 78.1986 96.1598L85.2873 98.9598L76.5283 103.23L69.1612 100.35L77.9898 96.0098H77.9799ZM67.6898 101.07L75.0469 103.94L65.3534 108.67L58.0956 105.79L67.6898 101.07ZM54.7451 107.44L55.5802 107.03L56.0475 106.8L56.6441 106.51L63.8919 109.39L53.7111 114.35L52.2298 113.76L51.504 113.47L50.8379 113.2L46.5528 111.48L54.7551 107.44H54.7451ZM44.9223 118.63L37.7142 115.82L40.6074 114.4L40.9753 114.22L42.3473 113.55L45.1012 112.19L49.1576 113.82L49.9729 114.15L50.8876 114.52L52.2596 115.07L44.9422 118.64L44.9223 118.63ZM46.4534 119.22L53.7608 115.66L65.0153 120.17L58.4734 123.9L46.4534 119.22ZM59.915 124.46L66.4371 120.73L75.6534 124.43L69.1612 128.06L59.915 124.46ZM81.4795 132.86L70.6127 128.63L77.0851 125L87.3951 129.13L81.559 132.79C81.559 132.79 81.5093 132.83 81.4795 132.85V132.86ZM93.1416 137.4L82.8615 133.4L88.777 129.69L94.0861 131.82C94.1458 131.84 94.2054 131.85 94.2651 131.86L93.1416 137.41V137.4ZM94.4937 130.68L90.0397 128.89L95.5576 125.43L94.4937 130.67V130.68ZM95.8658 123.89C95.7763 123.89 95.6967 123.92 95.6172 123.97L88.6478 128.34L78.4273 124.24L87.9319 118.92L96.1143 122.17C96.1143 122.17 96.174 122.19 96.2038 122.19L95.8658 123.88V123.89ZM96.4424 121.01L89.2841 118.17L97.9934 113.3L96.4325 121.02L96.4424 121.01ZM98.3215 111.72L88.7571 107.99L96.7009 103.45L99.7332 104.65L98.3115 111.72H98.3215ZM99.9917 103.45L98.053 102.68L100.419 101.33L99.9917 103.45ZM100.727 99.7698L96.6114 102.12L88.26 98.8198L94.2253 95.9098C94.2253 95.9098 94.2253 95.9098 94.2352 95.9098L101.056 98.1398L100.727 99.7798V99.7698Z" fill="#6E72FF"/>
<path d="M130.146 77.8098L127.85 91.6498C127.8 91.9498 128.088 92.1998 128.377 92.0898L154.614 82.5598C154.753 82.5098 154.852 82.3798 154.872 82.2398L156.592 69.5798C156.632 69.2898 156.354 69.0498 156.075 69.1398L130.415 77.4798C130.276 77.5298 130.166 77.6498 130.146 77.7998V77.8098Z" fill="#6E72FF"/>
<path d="M63.3948 137.25C63.0965 137.21 62.7784 137.16 62.4403 137.1C62.4403 137.1 62.3111 137.34 62.0228 137.67C61.0982 138.7 58.5331 140.61 53.0649 138.74C53.0649 138.74 51.2952 138.83 48.9191 139.02C48.5214 139.05 48.0939 139.09 47.6663 139.13C46.1353 139.28 44.4451 139.46 42.8742 139.69C42.1087 139.8 41.3432 140 40.5677 140.24C36.6206 141.47 32.4648 143.82 27.9213 141.88C25.734 140.94 18.8143 139.05 11.3378 137.13C5.70062 126.43 2.07174 114.5 0.948283 101.84C0.938341 101.71 0.928399 101.57 0.918457 101.44C6.05854 101.91 12.6701 102.31 16.6469 101.71C23.845 100.61 24.1234 99.5198 30.5062 101.3C34.4035 102.38 42.8742 103.93 48.8693 104.97C51.7327 105.47 54.0293 105.84 55.0036 106.01C55.3317 106.06 55.5107 106.09 55.5107 106.09C55.5107 106.09 55.5803 106.47 55.5703 107.07C55.5505 108.61 55.0136 111.61 51.4941 113.51C51.0367 113.76 50.5197 113.99 49.963 114.19C49.8636 114.23 49.7741 114.26 49.6747 114.29C46.6821 115.3 43.6895 114.95 40.9753 114.26C40.3788 114.11 39.8021 113.94 39.2354 113.77C37.2371 113.16 35.4375 112.48 33.9661 112.21C33.3397 112.09 32.783 112.05 32.2859 112.1C29.8699 112.38 28.4084 113.55 27.7224 114.27C27.4043 114.6 27.2552 114.83 27.2552 114.83L27.9213 115.14L28.0108 115.18L67.2722 133.13L69.1016 133.97C69.1016 133.97 70.4736 138.24 63.3948 137.27V137.25Z" fill="#FF9582"/>
<path d="M70.2449 133.88C70.2251 133.67 70.0859 133.49 69.897 133.4L28.5675 114.64C29.8103 113.51 31.0829 113.03 32.4648 112.92C34.2544 112.79 36.223 113.3 38.5295 113.9C38.619 113.92 38.7085 113.95 38.798 113.97C39.3846 114.12 39.9811 114.28 40.6075 114.42C42.4865 114.87 44.5545 115.25 46.8113 115.28H46.9704C48.5214 115.28 49.8139 115 50.8777 114.53C51.3748 114.32 51.8222 114.06 52.2199 113.78C55.0732 111.78 55.8388 108.32 56.0476 106.82C56.1072 106.38 56.1172 106.1 56.1172 106.09C56.1172 105.88 56.0178 105.69 55.8487 105.58C55.7891 105.53 55.7095 105.5 55.63 105.48C55.5604 105.47 53.3135 105 50.1121 104.35C43.2521 102.94 32.0175 100.65 28.4383 100.01C25.1574 99.4199 22.1648 99.9399 19.0032 100.5C16.8656 100.87 14.6585 101.26 12.1332 101.37C9.39911 101.49 4.97486 101.09 0.848877 100.6C0.868761 100.87 0.888646 101.15 0.918472 101.43C0.918472 101.56 0.938356 101.7 0.948298 101.83C5.03451 102.3 9.40905 102.69 12.1829 102.57C14.7877 102.46 17.0347 102.07 19.202 101.68C22.3935 101.12 25.1474 100.63 28.2196 101.19C31.5303 101.78 41.4426 103.8 48.3325 105.2C50.818 105.71 52.9158 106.14 54.1586 106.4C54.437 106.46 54.6756 106.51 54.8645 106.55C54.8346 106.79 54.7949 107.1 54.7253 107.46C54.3972 109.13 53.4626 111.84 50.8081 113.22C50.311 113.48 49.7542 113.69 49.1279 113.84C48.4816 113.99 47.7558 114.08 46.9505 114.08H46.8113C45.2305 114.06 43.7293 113.86 42.3274 113.57C41.6812 113.44 41.0548 113.3 40.4484 113.15C39.8916 113.02 39.3448 112.87 38.8179 112.74C37.3862 112.37 36.0241 112.01 34.7118 111.83C32.097 111.47 29.6811 111.81 27.3745 114.11L25.8533 113.42C25.5551 113.28 25.1972 113.42 25.058 113.72C24.9188 114.02 25.058 114.38 25.3562 114.52L69.0022 134.34C68.9525 134.59 68.8232 134.95 68.4752 135.31C67.829 135.98 66.3178 136.74 62.8281 136.54C55.7692 136.14 32.4748 126.73 32.2362 126.64C31.928 126.52 31.58 126.67 31.4607 126.97C31.3414 127.28 31.4905 127.63 31.7888 127.75C32.7134 128.12 53.4229 136.48 61.6351 137.62C57.0318 141.56 36.0639 135.36 27.9312 132.46C27.623 132.35 27.2751 132.51 27.1657 132.83C27.0563 133.14 27.2154 133.49 27.5336 133.6C27.6131 133.63 35.5071 136.43 43.7492 138.32C44.644 138.52 45.499 138.71 46.3341 138.88C41.4724 139.7 30.198 138.07 25.6943 137.26C25.3662 137.2 25.058 137.42 24.9983 137.75C24.9387 138.08 25.1574 138.39 25.4855 138.45C26.0522 138.55 35.8849 140.31 42.7848 140.31C45.3498 140.31 47.5073 140.07 48.6308 139.4C48.6606 139.38 48.6904 139.36 48.7202 139.33C51.5836 139.82 54.0492 140.07 56.0973 140.07C59.7361 140.07 62.0825 139.3 63.1264 137.75C63.3948 137.76 63.6533 137.77 63.9118 137.77C66.4968 137.77 68.3361 137.21 69.38 136.1C70.3543 135.07 70.235 133.94 70.2251 133.89L70.2449 133.88Z" fill="#412945"/>
<path d="M28.2594 30.7698H103.74C104.366 30.7698 104.873 31.3598 104.873 32.0798V71.7198C104.873 72.4498 104.366 73.0298 103.74 73.0298H88.4093L93.0125 80.3798L80.893 73.0298H28.2594C27.633 73.0298 27.126 72.4398 27.126 71.7198V32.0798C27.126 31.3498 27.633 30.7698 28.2594 30.7698Z" fill="#F7EDE5"/>
<path d="M78.5665 65.1697C78.2782 65.1697 77.9899 65.0597 77.7712 64.8297C77.3436 64.3897 77.3436 63.6797 77.791 63.2397L89.1251 52.0797L77.284 40.4097C76.8465 39.9797 76.8366 39.2697 77.2641 38.8197C77.6916 38.3797 78.3975 38.3697 78.8449 38.7997L91.4913 51.2697C91.71 51.4797 91.8293 51.7697 91.8293 52.0697C91.8293 52.3697 91.71 52.6597 91.4913 52.8697L79.3519 64.8297C79.1332 65.0397 78.8548 65.1497 78.5765 65.1497L78.5665 65.1697Z" fill="#412945"/>
<path d="M53.3334 65.5497C53.055 65.5497 52.7667 65.4397 52.5579 65.2297L40.4186 53.2697C40.1999 53.0597 40.0806 52.7697 40.0806 52.4697C40.0806 52.1697 40.1999 51.8797 40.4186 51.6697L53.065 39.1997C53.5024 38.7697 54.2083 38.7697 54.6458 39.2197C55.0733 39.6597 55.0733 40.3697 54.6259 40.8097L42.7848 52.4797L54.1189 63.6397C54.5563 64.0697 54.5662 64.7797 54.1387 65.2297C53.92 65.4497 53.6317 65.5697 53.3434 65.5697L53.3334 65.5497Z" fill="#412945"/>
<path d="M60.0941 66.0598C59.9748 66.0598 59.8554 66.0398 59.7461 65.9898C59.2689 65.7898 59.0402 65.2498 59.239 64.7698L69.4894 39.5798C69.6882 39.0998 70.2251 38.8698 70.7023 39.0698C71.1795 39.2698 71.4082 39.8098 71.2094 40.2898L60.959 65.4798C60.8099 65.8398 60.4619 66.0598 60.0941 66.0598Z" fill="#412945"/>
<path d="M123.435 21.0801L129.291 23.1301C129.629 23.2501 129.639 23.7301 129.291 23.8601L123.425 26.0801C123.326 26.1201 123.236 26.2001 123.197 26.3101L120.97 32.2501C120.84 32.5901 120.373 32.5901 120.244 32.2501L118.017 26.3101C117.977 26.2101 117.897 26.1201 117.788 26.0801L111.932 23.8601C111.594 23.7301 111.604 23.2401 111.942 23.1301L117.967 21.0701C118.076 21.0301 118.166 20.9401 118.206 20.8301L120.244 14.7901C120.363 14.4401 120.85 14.4401 120.97 14.7901L123.177 20.8501C123.217 20.9601 123.306 21.0501 123.415 21.0801H123.435Z" fill="#F7EDE5"/>
<path d="M173.255 107.16L179.111 109.21C179.449 109.33 179.459 109.81 179.111 109.94L173.245 112.16C173.146 112.2 173.056 112.28 173.017 112.39L170.79 118.33C170.66 118.67 170.193 118.67 170.064 118.33L167.837 112.39C167.797 112.29 167.718 112.2 167.608 112.16L161.752 109.94C161.414 109.81 161.424 109.32 161.762 109.21L167.787 107.15C167.897 107.11 167.986 107.02 168.026 106.91L170.064 100.87C170.183 100.52 170.67 100.52 170.79 100.87L172.997 106.93C173.037 107.04 173.126 107.13 173.235 107.16H173.255Z" fill="#F7EDE5"/>
<path d="M19.7289 76.8401L25.5849 78.8901C25.9229 79.0101 25.9328 79.4901 25.5849 79.6201L19.719 81.8401C19.6196 81.8801 19.5301 81.9601 19.4903 82.0701L17.2633 88.0101C17.1341 88.3501 16.6668 88.3501 16.5375 88.0101L14.3105 82.0701C14.2707 81.9701 14.1912 81.8801 14.0818 81.8401L8.2259 79.6201C7.88787 79.4901 7.89781 79.0001 8.23585 78.8901L14.2608 76.8301C14.3701 76.7901 14.4596 76.7001 14.4994 76.5901L16.5375 70.5501C16.6568 70.2001 17.144 70.2001 17.2633 70.5501L19.4705 76.6101C19.5102 76.7201 19.5997 76.8101 19.7091 76.8401H19.7289Z" fill="#F7EDE5"/>
<path d="M75.2359 156.19L81.0918 158.24C81.4298 158.36 81.4398 158.84 81.0918 158.97L75.226 161.19C75.1265 161.23 75.0371 161.31 74.9973 161.42L72.7703 167.36C72.641 167.7 72.1737 167.7 72.0445 167.36L69.8174 161.42C69.7777 161.32 69.6981 161.23 69.5888 161.19L63.7329 158.97C63.3948 158.84 63.4048 158.35 63.7428 158.24L69.7677 156.18C69.8771 156.14 69.9666 156.05 70.0063 155.94L72.0445 149.9C72.1638 149.55 72.6509 149.55 72.7703 149.9L74.9774 155.96C75.0172 156.07 75.1067 156.16 75.216 156.19H75.2359Z" fill="#F7EDE5"/>
</svg>
