<svg width="58" height="50" viewBox="0 0 58 50" fill="none" xmlns="http://www.w3.org/2000/svg">
<g clip-path="url(#clip0_42_8)">
<path d="M45.4089 50.0005C44.5325 50.0005 43.5872 49.7113 42.5821 49.1329L42.4965 49.0833L42.4172 49.0239L30.9486 40.4546L25.965 45.3244C25.0542 46.4516 23.6734 47.1192 22.2397 47.1192C22.2301 47.1192 22.2204 47.1192 22.2098 47.1192L20.4463 47.1075L21.5238 31.6088L35.7055 19.2095L16.2634 30.8096L3.15741 26.6471C0.3835 25.7614 0.0264004 24.0477 0.00171201 23.3522C-0.0388474 22.207 0.552791 20.5844 3.60445 19.3536L3.62032 19.3473L52.1259 0.366318C53.8012 -0.275181 55.4183 -0.0652525 56.5645 0.943847C57.3096 1.59976 58.4611 3.16747 57.806 6.29929L49.5486 45.865L49.546 45.8776C49.1104 47.8129 48.2339 49.0896 46.9413 49.6744C46.459 49.8924 45.9476 50.0014 45.4098 50.0014L45.4089 50.0005ZM44.2838 46.2344C44.9751 46.6173 45.4168 46.6678 45.6029 46.584C45.8021 46.4939 46.109 46.0596 46.3197 45.1334L54.5718 5.59382C54.809 4.45948 54.6591 3.72698 54.4052 3.50354C54.2129 3.33415 53.7756 3.34406 53.2915 3.52786L4.80977 22.4998C4.17933 22.7548 3.78079 22.9981 3.54537 23.1792C3.68909 23.2549 3.88484 23.3405 4.14407 23.4234L15.856 27.1435L43.1014 10.8862C44.6418 9.84915 46.3497 9.8888 47.1803 10.9871C47.7684 11.7646 47.8345 13.0242 46.6565 14.0838L46.6389 14.0991L24.7245 33.2585L24.0826 42.4899L30.6647 36.0578L44.2847 46.2335L44.2838 46.2344Z" fill="black"/>
</g>
<defs>
<clipPath id="clip0_42_8">
<rect width="58" height="50" fill="white"/>
</clipPath>
</defs>
</svg>
