<svg width="75" height="50" viewBox="0 0 75 50" fill="none" xmlns="http://www.w3.org/2000/svg">
<g clip-path="url(#clip0_42_10)">
<path d="M0 6.87912C0 4.0682 1.92665 2.95861 4.29821 2.81091L15.3411 2.88476C16.008 2.88476 16.6009 3.32879 16.8229 3.99436C19.3424 12.1308 22.4558 17.1599 26.1611 22.8556C26.3831 23.2996 26.754 23.5212 27.1249 23.5212C27.4209 23.5212 27.7178 23.3735 27.9398 23.0033L28.1618 22.19L28.2358 9.3937C28.2358 7.54469 27.3459 7.24835 25.2713 6.95297C24.4564 6.80527 23.9375 6.06491 23.9375 5.32549C23.9375 5.1778 23.9375 5.03011 24.0115 4.88147C25.0493 1.70132 28.3107 0.0738469 32.9058 0.0738469L37.056 0C40.4654 0 43.5778 1.47883 43.5778 5.84337V22.6331C43.8738 22.8547 44.1707 23.0033 44.5416 23.0033C45.1345 23.0033 45.8754 22.6331 46.4683 21.6722C50.3216 16.2728 54.6947 9.83773 55.2876 6.43509C55.2876 6.2874 55.3616 6.21355 55.4356 6.06491C56.2505 4.43744 58.3261 3.32784 59.2149 3.03245C59.3629 2.95861 59.5858 2.88476 59.8818 2.88476H71.3687L72.1096 2.95861C73.2213 2.95861 74.0362 3.69802 74.4071 4.36359C75.074 5.39934 74.926 6.50894 75 6.95202V7.46989C73.8882 14.2004 66.1807 21.7451 62.9202 26.6265C62.4753 27.2182 62.2534 27.7361 62.2534 28.254C62.2534 28.698 62.4753 29.1421 62.8462 29.5851L73.6662 43.1947C74.2591 44.008 74.556 44.9699 74.556 45.7832C74.556 48.2239 72.2585 49.6289 70.0349 49.8514L68.7751 49.9252H57.5102C57.2883 49.9252 57.1393 49.9991 56.9174 49.9991C55.6576 49.9991 54.6198 49.3335 53.8789 48.5941C51.5074 45.7093 49.2098 42.7507 46.9122 39.8659C46.4673 39.2742 46.3193 39.2004 45.8744 38.904C45.3555 41.0494 44.9106 43.2676 44.3927 45.4868L44.1707 46.7441C43.7998 48.0753 42.837 49.4812 41.0583 49.8504L40.0205 49.9243H32.7578C19.9363 49.9262 8.44843 31.7314 0.370911 9.02352C0.148934 8.4318 0 7.61853 0 6.87817V6.87912ZM44.5407 26.0358C42.614 26.0358 40.4644 24.9262 40.4644 22.8556V5.84337C40.4644 3.84666 39.5746 3.1063 37.1291 3.1063L32.9049 3.254C30.5333 3.254 29.1996 3.62418 28.0878 4.36359C29.7924 5.17685 31.3491 6.28645 31.3491 9.39275V22.4116C31.1272 25 28.9776 26.7013 26.902 26.7013C25.4942 26.7013 24.2345 25.8881 23.4926 24.556C20.1573 19.5268 17.3418 14.793 14.8962 7.98777L14.2293 6.06491L4.3722 5.99106C3.03844 5.99106 3.18642 6.06491 3.18642 6.73048C3.18642 7.17451 3.26042 7.76623 3.33441 8.13546L4.8911 12.2775C12.9696 33.1355 23.1227 46.8189 32.7569 46.8189H40.1675C41.2053 46.8189 41.1313 45.5616 41.3533 44.8222L42.7611 38.3133C43.057 37.6477 43.28 37.056 43.7989 36.5381C44.3917 35.9464 45.0586 35.7248 45.7255 35.7248C47.1333 35.7248 48.468 36.8344 49.3568 37.8702L55.6566 45.8589C56.1755 46.6722 56.6204 46.8208 56.9164 46.8208H69.1451C70.3309 46.8208 71.3687 46.4506 71.3687 45.7112C71.3687 45.4897 71.2947 45.1933 71.1467 44.9718L60.4007 31.5837C59.5109 30.4741 59.1409 29.3645 59.1409 28.2549C59.1409 27.0715 59.5858 25.8881 60.3267 24.8523C63.4391 20.1924 70.1089 13.5358 71.6656 8.06256L71.8876 7.10066C71.8136 6.73048 71.8136 6.43509 71.7396 6.06491H60.1038C59.3629 6.3603 58.77 6.80433 58.3251 7.39605L57.8802 8.80103C56.1755 13.5348 51.5064 20.0437 48.172 24.556C47.0602 25.5917 45.8004 26.0348 44.5407 26.0348V26.0358Z" fill="black"/>
</g>
<defs>
<clipPath id="clip0_42_10">
<rect width="75" height="50" fill="white"/>
</clipPath>
</defs>
</svg>
