<svg width="53" height="53" viewBox="0 0 53 53" fill="none" xmlns="http://www.w3.org/2000/svg">
<g clip-path="url(#clip0_42_12)">
<path fill-rule="evenodd" clip-rule="evenodd" d="M39.1802 31.684C38.5284 31.3304 35.3232 29.6146 34.7229 29.3714C34.1227 29.1295 33.6841 29.002 33.2164 29.6462C32.7487 30.2878 31.4184 31.7248 31.0156 32.1508C30.6115 32.5767 30.2219 32.6162 29.57 32.2612C28.9181 31.9075 26.8034 31.1318 24.3522 28.7929C22.4442 26.9733 21.192 24.7659 20.829 24.0914C20.4659 23.4182 20.8263 23.0738 21.1708 22.7582C21.4809 22.4729 21.8638 22.0128 22.211 21.6407C22.5568 21.2686 22.6787 20.9978 22.9159 20.5666C23.1544 20.1353 23.0576 19.7462 22.9039 19.4109C22.7502 19.0743 21.5445 15.7822 21.041 14.4425C20.5375 13.1041 19.9757 13.3026 19.5888 13.2868C19.2019 13.2724 18.7607 13.2014 18.3168 13.1843C17.8743 13.1685 17.1481 13.3052 16.5148 13.9442C15.8814 14.5792 14.1059 16.1109 13.9827 19.353C13.8608 22.5952 16.1213 25.8176 16.4366 26.2686C16.752 26.7209 20.7548 33.7495 27.4063 36.6406C34.0591 39.5304 34.0922 38.6496 35.3139 38.5838C36.5355 38.5207 39.3035 37.1363 39.9156 35.6178C40.5278 34.1005 40.5768 32.7805 40.4204 32.4992C40.2641 32.2191 39.8282 32.0364 39.1763 31.6827L39.1802 31.684ZM26.981 47.3098C22.582 47.3098 18.4851 46.0003 15.0639 43.756L6.74027 46.4L9.44592 38.4195C6.8529 34.8762 5.3212 30.5218 5.3212 25.819C5.3212 13.9665 15.0374 4.32551 26.9796 4.32551C38.9219 4.32551 48.6394 13.9665 48.6394 25.819C48.6394 37.6714 38.9232 47.3098 26.9796 47.3098H26.981ZM26.981 0C12.6114 0 0.963275 11.5592 0.963275 25.8176C0.963275 30.6953 2.32803 35.2562 4.69712 39.1492L0 53L14.4054 48.4247C18.1326 50.4691 22.419 51.6353 26.981 51.6353C41.3506 51.6353 53 40.0761 53 25.819C53 11.5619 41.3506 0 26.981 0Z" fill="#231F20"/>
</g>
<defs>
<clipPath id="clip0_42_12">
<rect width="53" height="53" fill="white"/>
</clipPath>
</defs>
</svg>
