<svg width="68" height="51" viewBox="0 0 68 51" fill="none" xmlns="http://www.w3.org/2000/svg">
<g clip-path="url(#clip0_42_14)">
<path d="M37.3664 50.9999C36.2428 50.9999 35.1212 50.9856 34.0005 50.958C26.1327 51.1523 18.1967 50.6628 10.4114 49.5029C10.3185 49.4886 10.2257 49.4696 10.1348 49.4448C7.0426 48.5963 4.4118 46.4747 2.91593 43.6245C2.86762 43.5312 2.82499 43.436 2.78899 43.3369C0.686811 37.6023 -0.234015 31.6021 0.0501906 25.4999C-0.234015 19.3977 0.686811 13.3974 2.78804 7.66284C2.81267 7.59618 2.84014 7.53047 2.87046 7.46667C4.29812 4.43844 6.98102 2.27487 10.2323 1.53019C10.2911 1.51686 10.3508 1.50543 10.4114 1.49686C18.1958 0.336036 26.1318 -0.153433 33.9995 0.0417835C41.8673 -0.153433 49.8032 0.336989 57.5886 1.49686C57.6814 1.51114 57.7743 1.53019 57.8652 1.55495C60.9574 2.40342 63.5891 4.52509 65.084 7.37525C65.1324 7.46857 65.175 7.5638 65.211 7.66284C67.3122 13.3974 68.234 19.3977 67.9488 25.4999C68.233 31.6021 67.3122 37.6023 65.211 43.3369C65.1864 43.4036 65.1589 43.4693 65.1286 43.5331C63.7009 46.5613 61.018 48.7249 57.7667 49.4696C57.708 49.4829 57.6483 49.4943 57.5886 49.5029C50.9126 50.498 44.1248 50.9989 37.3655 50.9989L37.3664 50.9999ZM34.0005 46.1966C34.0204 46.1966 34.0402 46.1966 34.0601 46.1966C41.6437 46.3871 49.2926 45.9205 56.7985 44.8072C58.5549 44.3797 60.0072 43.2112 60.8067 41.5838C62.6721 36.4491 63.4821 31.0783 63.214 25.617C63.2102 25.5389 63.2102 25.4608 63.214 25.3818C63.4811 19.9386 62.6778 14.584 60.8247 9.46549C59.9494 7.88186 58.4753 6.69532 56.7454 6.18395C49.2576 5.07741 41.6257 4.61175 34.0601 4.80315C34.0204 4.80315 33.9806 4.80315 33.9417 4.80315C26.3582 4.61175 18.7083 5.07932 11.2034 6.19252C9.44698 6.61914 7.99469 7.78758 7.19512 9.41597C5.32979 14.5497 4.5198 19.9215 4.7879 25.3828C4.79169 25.4608 4.79169 25.5389 4.7879 25.618C4.52075 31.0612 5.3241 36.4158 7.17712 41.5343C8.05248 43.1189 9.52656 44.3054 11.2574 44.8158C18.7452 45.9224 26.3771 46.3871 33.9417 46.1966C33.9616 46.1966 33.9815 46.1966 34.0014 46.1966H34.0005Z" fill="black"/>
<path d="M28.1013 37.6793C27.7584 37.6793 27.4135 37.6374 27.0725 37.5526C25.9669 37.2784 25.0338 36.588 24.4455 35.6081C24.0287 34.9148 23.8174 34.1225 23.8325 33.3131V17.6863C23.789 15.3418 25.641 13.3877 27.9782 13.3239C28.7948 13.3011 29.5991 13.5144 30.2992 13.9391L43.3063 21.8096C43.3186 21.8173 43.33 21.8239 43.3423 21.8315C44.3001 22.4343 44.967 23.3771 45.22 24.4836C45.4729 25.5911 45.2816 26.731 44.6819 27.6937C44.3446 28.2356 43.8814 28.7013 43.3423 29.0403C43.3347 29.045 43.3281 29.0488 43.3205 29.0536L30.3105 37.0527C30.3105 37.0527 30.303 37.0575 30.2992 37.0594C29.6256 37.4688 28.8696 37.6783 28.1023 37.6783L28.1013 37.6793ZM28.5684 18.45V32.5427L40.1204 25.4397L28.5684 18.45Z" fill="black"/>
</g>
<defs>
<clipPath id="clip0_42_14">
<rect width="68" height="51" fill="white"/>
</clipPath>
</defs>
</svg>
